<svg version="1.1" width="97" height="94" viewBox="-1 -1 97 94" xmlns="http://www.w3.org/2000/svg" xmlns:xlink="http://www.w3.org/1999/xlink">
  <!-- Exported by Scratch - http://scratch.mit.edu/ -->
  <path id="ID0.16820912389084697" fill="#876E56" stroke="#000000" stroke-width="1" stroke-linecap="round" d="M 252.150 183.250 C 255.747 187.084 256.090 193.609 257.912 198.601 C 258.675 200.664 259.335 202.778 260 204.875 C 260.774 207.297 264.199 210.285 262.750 212.250 C 260.644 214.714 256.030 213.971 252.875 213.750 C 250.992 213.620 249.128 212.756 247.838 211.149 C 246.548 209.542 245.744 207.077 245.750 204.875 C 245.765 199.198 246.263 193.219 247.900 187.750 C 248.481 185.725 250.758 181.783 252.150 183.250 Z " transform="matrix(1.0787428617477417, 0, 0, 1.0787428617477417, -257.6, -139.25)"/>
  <path id="ID0.16820912389084697" fill="#876E56" stroke="#000000" stroke-width="1" stroke-linecap="round" d="M 252.875 196 C 254.841 196 256.622 196.994 257.912 198.601 C 259.202 200.208 259.335 202.778 260 204.875 C 260.774 207.297 264.199 210.285 262.750 212.250 C 260.644 214.714 256.030 213.971 252.875 213.750 C 250.992 213.620 249.128 212.756 247.838 211.149 C 246.548 209.542 245.750 207.324 245.750 204.875 C 245.750 202.426 246.548 200.208 247.838 198.601 C 249.128 196.994 250.909 196 252.875 196 Z " transform="matrix(1.0787428617477417, 0, 0, 1.0787428617477417, -210.5, -139.9)"/>
  <path id="ID0.3329415526241064" fill="#9F8265" stroke="#000000" stroke-width="1" stroke-linecap="round" d="M 232.250 173.250 C 240.008 173.452 248.947 175.589 254.695 179.368 C 260.442 183.147 262.421 188.537 264 194.125 C 265.492 199.463 264.810 205.011 263.950 210.350 C 263.464 213.132 261.469 214.952 260.250 216.850 C 258.403 220.354 258.113 224.864 254.700 226.600 C 250.950 228.387 244.842 228.896 242.150 226.100 C 239.919 223.758 247.286 218.503 245.250 215.750 C 243.146 212.915 238.100 214.658 234.500 214.500 C 228.761 214.244 221.882 211.205 216.650 214.050 C 213.327 216.133 216.240 219.680 215.750 222.450 C 215.471 224.027 217.359 225.090 214.350 227.050 C 210.884 229.024 204.040 229.080 202.300 225.200 C 198.087 215.736 199.693 204.643 200.500 194.125 C 200.943 188.386 202.050 181.181 206.750 178 C 214.057 173.287 223.756 173.027 232.250 173.250 Z " transform="matrix(1.0787428617477417, 0, 0, 1.0787428617477417, -212.25, -153.9)"/>
  <path id="ID0.7185870478861034" fill="#9F8265" stroke="#000000" stroke-width="1" d="M 208.625 167.250 C 209.901 167.250 211.057 167.768 211.895 168.605 C 212.732 169.443 213.250 170.599 213.250 171.875 C 213.250 173.151 212.732 174.307 211.895 175.145 C 211.057 175.982 209.901 176.500 208.625 176.500 C 207.349 176.500 206.193 175.982 205.355 175.145 C 204.518 174.307 204 173.151 204 171.875 C 204 170.599 204.518 169.443 205.355 168.605 C 206.193 167.768 207.349 167.250 208.625 167.250 Z " transform="matrix(1.0787428617477417, 0, 0, 1.0787428617477417, -219.3, -146.4)"/>
  <path id="ID0.5391990509815514" fill="#9F8265" stroke="#000000" stroke-width="1" stroke-linecap="round" d="M 296.500 186.500 C 298.500 186.500 300.313 187.312 301.625 188.625 C 302.938 189.937 303.750 191.750 303.750 193.750 C 303.750 195.750 302.938 197.563 301.625 198.875 C 300.313 200.188 298.500 201 296.500 201 C 294.500 201 292.687 200.188 291.375 198.875 C 290.062 197.563 289.250 195.750 289.250 193.750 C 289.250 191.750 290.062 189.937 291.375 188.625 C 292.687 187.312 294.500 186.500 296.500 186.500 Z " transform="matrix(1.0787428617477417, 0, 0, 1.0787428617477417, -275.35, -198.5)"/>
  <path id="ID0.5391990509815514" fill="#9F8265" stroke="#000000" stroke-width="1" stroke-linecap="round" d="M 296.500 186.500 C 298.500 186.500 300.313 187.312 301.625 188.625 C 302.938 189.937 303.750 191.750 303.750 193.750 C 303.750 195.750 302.938 197.563 301.625 198.875 C 300.313 200.188 298.500 201 296.500 201 C 294.500 201 292.687 200.188 291.375 198.875 C 290.062 197.563 289.250 195.750 289.250 193.750 C 289.250 191.750 290.062 189.937 291.375 188.625 C 292.687 187.312 294.500 186.500 296.500 186.500 Z " transform="matrix(1.0787428617477417, 0, 0, 1.0787428617477417, -232.85, -197.55)"/>
  <path id="ID0.8421659753657877" fill="#9F8265" stroke="#000000" stroke-width="1" stroke-linecap="round" d="M 258 121 C 264.621 121 270.621 123.689 274.966 128.034 C 279.311 132.379 282 138.379 282 145 C 282 151.621 279.311 157.621 274.966 161.966 C 270.621 166.311 264.621 169 258 169 C 251.379 169 245.379 166.311 241.034 161.966 C 236.689 157.621 234 151.621 234 145 C 234 138.379 236.689 132.379 241.034 128.034 C 245.379 123.689 251.379 121 258 121 Z " transform="matrix(1.0787428617477417, 0, 0, 1.0787428617477417, -213.65, -129.1)"/>
  <path id="ID0.07148122228682041" fill="#000000" stroke="none" d="M 383 247 L 384 247 L 384 247 L 383 247 L 383 247 Z " transform="matrix(1.0787428617477417, 0, 0, 1.0787428617477417, -330.85, -256.55)"/>
  <g id="ID0.07850504666566849">
    <path id="ID0.8910258994437754" fill="none" stroke="#000000" stroke-width="1" stroke-linecap="round" d="M 266.300 176.800 C 266.300 176.800 266.699 178.238 267.300 178.350 C 268.202 178.509 269.031 177.294 270 177.250 C 270.965 177.251 271.807 178.610 272.800 178.450 C 273.437 178.217 273.400 176.450 273.400 176.450 " transform="matrix(1.0787428617477417, 0, 0, 1.0787428617477417, -223.35, -149.7)"/>
    <g id="ID0.7041333033703268">
      <path id="ID0.5253424141556025" fill="#000000" stroke="none" d="M 254.500 167 C 255.190 167 255.815 167.280 256.267 167.733 C 256.720 168.185 257 168.810 257 169.500 C 257 170.190 256.720 170.815 256.267 171.267 C 255.815 171.720 255.190 172 254.500 172 C 253.810 172 253.185 171.720 252.733 171.267 C 252.280 170.815 252 170.190 252 169.500 C 252 168.810 252.280 168.185 252.733 167.733 C 253.185 167.280 253.810 167 254.500 167 Z " transform="matrix(1.0787428617477417, 0, 0, 1.0787428617477417, -221.2, -149.7)"/>
      <path id="ID0.5253424141556025" fill="#000000" stroke="none" d="M 254.500 167 C 255.190 167 255.815 167.280 256.267 167.733 C 256.720 168.185 257 168.810 257 169.500 C 257 170.190 256.720 170.815 256.267 171.267 C 255.815 171.720 255.190 172 254.500 172 C 253.810 172 253.185 171.720 252.733 171.267 C 252.280 170.815 252 170.190 252 169.500 C 252 168.810 252.280 168.185 252.733 167.733 C 253.185 167.280 253.810 167 254.500 167 Z " transform="matrix(1.0787428617477417, 0, 0, 1.0787428617477417, -191, -150.45)"/>
      <path id="ID0.5253424141556025" fill="#000000" stroke="none" d="M 254.500 167 C 255.190 167 255.815 167.280 256.267 167.733 C 256.720 168.185 257 168.810 257 169.500 C 257 170.190 256.720 170.815 256.267 171.267 C 255.815 171.720 255.190 172 254.500 172 C 253.810 172 253.185 171.720 252.733 171.267 C 252.280 170.815 252 170.190 252 169.500 C 252 168.810 252.280 168.185 252.733 167.733 C 253.185 167.280 253.810 167 254.500 167 Z " transform="matrix(1.0787428617477417, 0, 0, 0.6148834228515625, -206.65, -68.9)"/>
    </g>
  </g>
</svg>