<svg version="1.1" width="97" height="93" viewBox="-1 0 97 93" xmlns="http://www.w3.org/2000/svg" xmlns:xlink="http://www.w3.org/1999/xlink">
  <!-- Exported by Scratch - http://scratch.mit.edu/ -->
  <g id="ID0.7916985228657722">
    <path id="ID0.25780164869502187" fill="#B79A84" stroke="#000000" stroke-width="1" stroke-linecap="round" d="M 275 198.500 C 277.270 198.922 279.064 201.458 279.750 203.700 C 280.749 206.963 279.693 210.571 279.600 214 C 279.494 217.899 280.118 222.023 279 225.850 C 278.489 227.600 276.899 229.398 275 229.750 C 273.258 230.072 270.894 229.037 270.250 227.350 C 268.675 223.119 268.966 218.297 269 213.750 C 269.025 209.791 268.735 205.227 270.150 201.250 C 270.930 199.649 273.128 198.176 275 198.500 Z " transform="matrix(-1.1496448516845703, -0.01500122994184494, -0.01500122994184494, 1.1496448516845703, 337.5, -171.75)"/>
    <path id="ID0.25780164869502187" fill="#B79A84" stroke="#000000" stroke-width="1" stroke-linecap="round" d="M 275 198.500 C 277.270 198.922 279.064 201.458 279.750 203.700 C 280.749 206.963 279.693 210.571 279.600 214 C 279.494 217.899 280.118 222.023 279 225.850 C 278.489 227.600 276.899 229.398 275 229.750 C 273.258 230.072 270.894 229.037 270.250 227.350 C 268.675 223.119 268.966 218.297 269 213.750 C 269.025 209.791 268.735 205.227 270.150 201.250 C 270.930 199.649 273.128 198.176 275 198.500 Z " transform="matrix(-1.1496448516845703, -0.01500122994184494, -0.01500122994184494, 1.1496448516845703, 369.6, -168.25)"/>
    <path id="ID0.13815721357241273" fill="#E7C2A6" stroke="#000000" stroke-width="1" stroke-linecap="round" d="M 216.500 179.250 C 223.982 179.619 231.740 176.893 239 178.750 C 244.160 180.070 249.412 183.457 251.500 188.250 C 253.235 192.234 249.414 196.866 248.750 201.250 C 248.021 206.104 249.716 211.709 247.250 216 C 246.161 218.086 242.047 218.030 240.250 216.500 C 237.220 213.955 238.465 207.950 235.250 205.750 C 231.059 202.883 225.250 204.123 220.250 203 C 216.211 202.092 212.001 198.366 208.250 199.750 C 206.765 207.532 209.066 212.131 206.500 215.750 C 204.875 217.946 199.678 218.378 198.250 216 C 194.916 209.994 195.864 202.357 195 195.500 C 194.357 190.309 195.049 187.024 194.450 182.900 C 193.921 180.054 191.856 177.543 191.650 174.650 C 191.311 169.886 191.048 164.792 192.700 160.300 C 193.794 157.134 198.993 152.166 199.450 152.900 C 199.907 153.634 195.759 160.645 195.250 164.750 C 194.935 167.299 195.662 170.057 197.050 172.250 C 198.119 174.269 200.028 175.992 202.250 176.750 C 206.807 178.306 211.507 179.007 216.500 179.250 Z " transform="matrix(1.1497427225112915, 0, 0, 1.1497427225112915, -219.05, -157.65)"/>
    <path id="ID0.1916940314695239" fill="#E7C2A6" stroke="#000000" stroke-width="1" stroke-linecap="round" d="M 209.400 162.650 C 212.241 162.602 214.197 169.015 215.450 172.750 C 216.524 176.762 216.242 181.105 216.200 185.300 C 216.190 186.349 215.294 185.705 214.850 185.750 C 213.218 186.007 211.171 185.091 210 186.200 C 208.188 187.929 208.492 193.755 207.100 193.300 C 205.325 192.709 204.309 187.575 203.850 184.600 C 203.085 180.676 202.510 176.488 203.476 172.876 C 204.495 169.075 206.503 162.656 209.400 162.650 Z " transform="matrix(1.1411725282669067, -0.14012931287288666, 0.12243631482124329, 1.0044596195220947, -204.5, -131.6)"/>
    <path id="ID0.1916940314695239" fill="#E7C2A6" stroke="#000000" stroke-width="1" stroke-linecap="round" d="M 208.950 163.800 C 211.869 163.849 214.041 169.491 215.250 173.050 C 216.540 176.894 216.595 181.190 216.200 185.300 C 216.105 186.334 214.986 183.357 213.974 183.374 C 212.083 183.407 210.279 184.474 208.725 185.550 C 207.662 186.293 207.586 189.237 206.350 189.050 C 204.707 188.797 203.555 186.309 203.350 184.500 C 202.556 180.687 202.381 176.659 203.476 172.876 C 204.455 169.488 206.120 163.815 208.950 163.800 Z " transform="matrix(-1.1483113765716553, -0.05735177919268608, -0.061194583773612976, 1.2252535820007324, 333.35, -186.6)"/>
    <path id="ID0.1768969250842929" fill="#E7C2A6" stroke="#000000" stroke-width="1" stroke-linecap="round" d="M 306.900 188.050 C 307.114 188.945 308.551 188.568 309.200 189.300 C 310.299 190.552 311.300 192 311.500 193.750 C 311.650 195.500 311.150 197.250 310.050 198.550 C 308.950 199.850 305.600 200.900 305.500 200.950 C 305.500 200.950 307.500 204.300 307.650 206.100 C 307.750 207.800 307.150 209.550 306 210.850 C 304.800 212.150 303.150 212.950 301.450 213.050 C 300 213.150 296.600 210.950 296.350 211.050 C 296.350 211.050 296.181 214.835 294.850 215.850 C 293.617 216.791 291.789 215.438 290.300 215.550 C 288.673 215.741 287.006 217.449 285.600 216.750 C 284.081 215.993 283.250 212.300 283.200 212.250 C 283.200 212.250 279.850 214.200 278.050 214.350 C 276.350 214.450 274.600 213.850 273.300 212.700 C 272 211.500 271.150 209.900 271.050 208.200 C 270.950 206.500 272.700 203.450 272.700 203.450 C 272.800 203.450 269.285 201.613 267.700 200.050 C 266.539 198.867 265.850 197.150 265.850 195.400 C 265.850 193.650 266.550 191.950 267.750 190.750 C 269.050 189.500 272.750 188.300 272.750 188.300 C 272.750 188.200 270.900 185.200 270.950 183.500 C 271 181.800 271.800 180.150 273.050 178.950 C 274.350 177.750 276.050 177.100 277.750 177.150 C 279.450 177.200 282.350 179.250 282.350 179.250 C 282.600 179.100 283.248 175.136 284.277 174.077 C 285.469 172.910 287.180 172.150 288.925 172.150 C 290.670 172.150 292.398 172.884 293.573 174.077 C 294.835 175.360 296 179.050 296 179.050 C 296.100 179.050 299.100 177.200 300.800 177.250 C 302.500 177.300 304.150 178.100 305.350 179.350 C 306.550 180.650 306.927 182.391 307.150 184.050 C 307.331 185.408 306.293 186.843 306.900 188.050 Z " transform="matrix(1.0589231252670288, -0.10130327194929123, -0.10130327194929123, -1.0589231252670288, -215.55, 274.55)"/>
    <path id="ID0.4746925150975585" fill="#FFFFFF" stroke="none" d="M 250.425 170.350 C 252.101 170.350 253.620 171.429 254.720 173.171 C 255.819 174.913 256.500 177.320 256.500 179.975 C 256.500 182.630 255.819 185.037 254.720 186.779 C 253.620 188.521 252.101 189.600 250.425 189.600 C 248.749 189.600 247.230 188.521 246.130 186.779 C 245.031 185.037 244.350 182.630 244.350 179.975 C 244.350 177.320 245.031 174.913 246.130 173.171 C 247.230 171.429 248.749 170.350 250.425 170.350 Z " transform="matrix(1.3298585414886475, 0, 0, 1.1497427225112915, -261.1, -158.6)"/>
    <path id="ID0.9815500224940479" fill="#3D333D" stroke="none" d="M 234.750 305.500 C 236.612 305.500 238.300 305.920 239.522 306.599 C 240.744 307.278 241.500 308.215 241.500 309.250 C 241.500 310.285 240.744 311.222 239.522 311.901 C 238.300 312.580 236.612 313 234.750 313 C 232.888 313 231.200 312.580 229.978 311.901 C 228.756 311.222 228 310.285 228 309.250 C 228 308.215 228.756 307.278 229.978 306.599 C 231.200 305.920 232.888 305.500 234.750 305.500 Z " transform="matrix(-0.5332722663879395, 0, 0, 0.5332722663879395, 197.1, -125.2)"/>
    <path id="ID0.16015235101804137" fill="#000000" stroke="none" d="M 255.500 300 C 256.604 300 257.604 300.448 258.328 301.172 C 259.052 301.896 259.500 302.896 259.500 304 C 259.500 305.104 259.052 306.104 258.328 306.828 C 257.604 307.552 256.604 308 255.500 308 C 254.396 308 253.396 307.552 252.672 306.828 C 251.948 306.104 251.500 305.104 251.500 304 C 251.500 302.896 251.948 301.896 252.672 301.172 C 253.396 300.448 254.396 300 255.500 300 Z " transform="matrix(-0.5332722663879395, 0, 0, 0.5332722663879395, 197.75, -125.2)"/>
    <path id="ID0.16015235101804137" fill="#000000" stroke="none" d="M 255.500 300 C 256.604 300 257.604 300.448 258.328 301.172 C 259.052 301.896 259.500 302.896 259.500 304 C 259.500 305.104 259.052 306.104 258.328 306.828 C 257.604 307.552 256.604 308 255.500 308 C 254.396 308 253.396 307.552 252.672 306.828 C 251.948 306.104 251.500 305.104 251.500 304 C 251.500 302.896 251.948 301.896 252.672 301.172 C 253.396 300.448 254.396 300 255.500 300 Z " transform="matrix(-0.5332722663879395, 0, 0, 0.5332722663879395, 218.6, -125.2)"/>
    <path id="ID0.05795959895476699" fill="#FF876C" stroke="none" stroke-linecap="round" d="M 239.050 193.750 C 240.077 193.726 241.405 193.938 242.100 194.750 C 242.716 195.474 242.469 196.633 242.300 197.550 C 242.164 198.621 241.862 199.749 241.206 200.578 C 240.696 201.223 239.891 201.750 239.050 201.750 C 238.209 201.750 237.377 201.240 236.894 200.578 C 236.249 199.691 236.089 198.470 236 197.350 C 235.887 196.539 235.745 195.550 236.300 194.900 C 236.944 194.145 238.058 193.773 239.050 193.750 Z " transform="matrix(-1.0443248748779297, 0, 0, 1.0443248748779297, 321.65, -155.35)"/>
    <path id="ID0.6242816634476185" fill="none" stroke="#000000" stroke-width="2" stroke-linecap="round" d="M 233.500 192.150 C 233.500 192.150 234.627 194.067 235.600 194.300 C 236.731 194.572 237.723 193.356 238.850 193.350 C 239.834 193.345 240.780 194.509 241.800 194.250 C 242.672 194.011 243.600 192.100 243.600 192.100 " transform="matrix(-1.0443248748779297, 0, 0, 1.0443248748779297, 320.7, -154.75)"/>
  </g>
</svg>