<svg version="1.1" width="96" height="97" viewBox="4 14 96 97" xmlns="http://www.w3.org/2000/svg" xmlns:xlink="http://www.w3.org/1999/xlink">
  <!-- Exported by Scratch - http://scratch.mit.edu/ -->
  <g id="ID0.7674319227226079" transform="matrix(1, 0, 0, 1, 0, -7)">
    <path id="ID0.688560213893652" fill="#FFFFFF" stroke="#000000" stroke-width="1" d="M 219.500 205 C 223.225 205 226.600 206.513 229.043 208.957 C 231.487 211.400 233 214.775 233 218.500 C 233 222.225 231.487 225.600 229.043 228.043 C 226.600 230.487 223.225 232 219.500 232 C 215.775 232 212.400 230.487 209.957 228.043 C 207.513 225.600 206 222.225 206 218.500 C 206 214.775 207.513 211.400 209.957 208.957 C 212.400 206.513 215.775 205 219.500 205 Z " transform="matrix(0.4846317172050476, 1.0730832815170288, -0.9766932725906372, 0.39446189999580383, 164.05, -280.3)"/>
    <path id="ID0.688560213893652" fill="#FFFFFF" stroke="#000000" stroke-width="1" d="M 219.500 205 C 223.225 205 226.600 206.513 229.043 208.957 C 231.487 211.400 233 214.775 233 218.500 C 233 222.225 231.487 225.600 229.043 228.043 C 226.600 230.487 223.225 232 219.500 232 C 215.775 232 212.400 230.487 209.957 228.043 C 207.513 225.600 206 222.225 206 218.500 C 206 214.775 207.513 211.400 209.957 208.957 C 212.400 206.513 215.775 205 219.500 205 Z " transform="matrix(0.4846317172050476, 1.0730832815170288, -0.9766932725906372, 0.39446189999580383, 185.2, -265.45)"/>
    <path id="ID0.688560213893652" fill="#FFFFFF" stroke="#000000" stroke-width="1" d="M 219.500 205 C 223.225 205 226.600 206.513 229.043 208.957 C 231.487 211.400 233 214.775 233 218.500 C 233 222.225 231.487 225.600 229.043 228.043 C 226.600 230.487 223.225 232 219.500 232 C 215.775 232 212.400 230.487 209.957 228.043 C 207.513 225.600 206 222.225 206 218.500 C 206 214.775 207.513 211.400 209.957 208.957 C 212.400 206.513 215.775 205 219.500 205 Z " transform="matrix(0.4846317172050476, 1.0730832815170288, -0.9766932725906372, 0.39446189999580383, 182.6, -235.45)"/>
    <path id="ID0.688560213893652" fill="#FFFFFF" stroke="#000000" stroke-width="1" d="M 219.500 205 C 223.225 205 226.600 206.513 229.043 208.957 C 231.487 211.400 233 214.775 233 218.500 C 233 222.225 231.487 225.600 229.043 228.043 C 226.600 230.487 223.225 232 219.500 232 C 215.775 232 212.400 230.487 209.957 228.043 C 207.513 225.600 206 222.225 206 218.500 C 206 214.775 207.513 211.400 209.957 208.957 C 212.400 206.513 215.775 205 219.500 205 Z " transform="matrix(0.4846317172050476, 1.0730832815170288, -0.9766932725906372, 0.39446189999580383, 164.65, -224.2)"/>
    <path id="ID0.688560213893652" fill="#FFFFFF" stroke="#000000" stroke-width="1" d="M 219.500 205 C 223.225 205 226.600 206.513 229.043 208.957 C 231.487 211.400 233 214.775 233 218.500 C 233 222.225 231.487 225.600 229.043 228.043 C 226.600 230.487 223.225 232 219.500 232 C 215.775 232 212.400 230.487 209.957 228.043 C 207.513 225.600 206 222.225 206 218.500 C 206 214.775 207.513 211.400 209.957 208.957 C 212.400 206.513 215.775 205 219.500 205 Z " transform="matrix(0.4846317172050476, 1.0730832815170288, -0.9766932725906372, 0.39446189999580383, 141.25, -273.05)"/>
    <path id="ID0.688560213893652" fill="#FFFFFF" stroke="#000000" stroke-width="1" d="M 219.500 205 C 223.225 205 226.600 206.513 229.043 208.957 C 231.487 211.400 233 214.775 233 218.500 C 233 222.225 231.487 225.600 229.043 228.043 C 226.600 230.487 223.225 232 219.500 232 C 215.775 232 212.400 230.487 209.957 228.043 C 207.513 225.600 206 222.225 206 218.500 C 206 214.775 207.513 211.400 209.957 208.957 C 212.400 206.513 215.775 205 219.500 205 Z " transform="matrix(0.4846317172050476, 1.0730832815170288, -0.9766932725906372, 0.39446189999580383, 128.05, -253.85)"/>
    <path id="ID0.7402562801726162" fill="#FFFFFF" stroke="none" d="M 237.250 169.750 C 239.388 169.750 241.326 170.618 242.729 172.021 C 244.132 173.424 245 175.362 245 177.500 C 245 179.638 244.132 181.576 242.729 182.979 C 241.326 184.382 239.388 185.250 237.250 185.250 C 235.112 185.250 233.174 184.382 231.771 182.979 C 230.368 181.576 229.500 179.638 229.500 177.500 C 229.500 175.362 230.368 173.424 231.771 172.021 C 233.174 170.618 235.112 169.750 237.250 169.750 Z " transform="matrix(0.9573807120323181, -0.6253421306610107, 0.7040133476257324, 1.0778239965438843, -303.9, 2.9)"/>
    <path id="ID0.688560213893652" fill="#FFFFFF" stroke="#000000" stroke-width="1" d="M 219.500 205 C 223.225 205 226.600 206.513 229.043 208.957 C 231.487 211.400 233 214.775 233 218.500 C 233 222.225 231.487 225.600 229.043 228.043 C 226.600 230.487 223.225 232 219.500 232 C 215.775 232 212.400 230.487 209.957 228.043 C 207.513 225.600 206 222.225 206 218.500 C 206 214.775 207.513 211.400 209.957 208.957 C 212.400 206.513 215.775 205 219.500 205 Z " transform="matrix(0.4846317172050476, 1.0730832815170288, -0.9766932725906372, 0.39446189999580383, 138.85, -230.1)"/>
    <path id="ID0.688560213893652" fill="#FFFFFF" stroke="#000000" stroke-width="1" d="M 219.500 205 C 223.225 205 226.600 206.513 229.043 208.957 C 231.487 211.400 233 214.775 233 218.500 C 233 222.225 231.487 225.600 229.043 228.043 C 226.600 230.487 223.225 232 219.500 232 C 215.775 232 212.400 230.487 209.957 228.043 C 207.513 225.600 206 222.225 206 218.500 C 206 214.775 207.513 211.400 209.957 208.957 C 212.400 206.513 215.775 205 219.500 205 Z " transform="matrix(0.4846317172050476, 1.0730832815170288, -0.9766932725906372, 0.39446189999580383, 151.5, -221)"/>
    <path id="ID0.688560213893652" fill="#FFFFFF" stroke="#000000" stroke-width="1" d="M 219.500 205 C 223.225 205 226.600 206.513 229.043 208.957 C 231.487 211.400 233 214.775 233 218.500 C 233 222.225 231.487 225.600 229.043 228.043 C 226.600 230.487 223.225 232 219.500 232 C 215.775 232 212.400 230.487 209.957 228.043 C 207.513 225.600 206 222.225 206 218.500 C 206 214.775 207.513 211.400 209.957 208.957 C 212.400 206.513 215.775 205 219.500 205 Z " transform="matrix(0.4846317172050476, 1.0730832815170288, -0.9766932725906372, 0.39446189999580383, 191.15, -250.35)"/>
    <path id="ID0.688560213893652" fill="#FFFFFF" stroke="none" d="M 219.500 205 C 223.225 205 226.600 206.513 229.043 208.957 C 231.487 211.400 233 214.775 233 218.500 C 233 222.225 231.487 225.600 229.043 228.043 C 226.600 230.487 223.225 232 219.500 232 C 215.775 232 212.400 230.487 209.957 228.043 C 207.513 225.600 206 222.225 206 218.500 C 206 214.775 207.513 211.400 209.957 208.957 C 212.400 206.513 215.775 205 219.500 205 Z " transform="matrix(0.4846317172050476, 1.0730832815170288, -0.9766932725906372, 0.39446189999580383, 163.2, -255.25)"/>
    <path id="ID0.688560213893652" fill="#FFFFFF" stroke="none" d="M 219.500 205 C 223.225 205 226.600 206.513 229.043 208.957 C 231.487 211.400 233 214.775 233 218.500 C 233 222.225 231.487 225.600 229.043 228.043 C 226.600 230.487 223.225 232 219.500 232 C 215.775 232 212.400 230.487 209.957 228.043 C 207.513 225.600 206 222.225 206 218.500 C 206 214.775 207.513 211.400 209.957 208.957 C 212.400 206.513 215.775 205 219.500 205 Z " transform="matrix(0.4846317172050476, 1.0730832815170288, -0.9766932725906372, 0.39446189999580383, 146.55, -255.15)"/>
    <path id="ID0.688560213893652" fill="#FFFFFF" stroke="none" d="M 219.500 205 C 223.225 205 226.600 206.513 229.043 208.957 C 231.487 211.400 233 214.775 233 218.500 C 233 222.225 231.487 225.600 229.043 228.043 C 226.600 230.487 223.225 232 219.500 232 C 215.775 232 212.400 230.487 209.957 228.043 C 207.513 225.600 206 222.225 206 218.500 C 206 214.775 207.513 211.400 209.957 208.957 C 212.400 206.513 215.775 205 219.500 205 Z " transform="matrix(0.4846317172050476, 1.0730832815170288, -0.9766932725906372, 0.39446189999580383, 171.6, -252.3)"/>
    <path id="ID0.688560213893652" fill="#FFFFFF" stroke="none" d="M 219.500 205 C 223.225 205 226.600 206.513 229.043 208.957 C 231.487 211.400 233 214.775 233 218.500 C 233 222.225 231.487 225.600 229.043 228.043 C 226.600 230.487 223.225 232 219.500 232 C 215.775 232 212.400 230.487 209.957 228.043 C 207.513 225.600 206 222.225 206 218.500 C 206 214.775 207.513 211.400 209.957 208.957 C 212.400 206.513 215.775 205 219.500 205 Z " transform="matrix(0.4846317172050476, 1.0730832815170288, -0.9766932725906372, 0.39446189999580383, 144.15, -241.3)"/>
    <path id="ID0.30037040216848254" fill="#FFFFFF" stroke="none" stroke-linecap="round" d="M 279.750 189.250 C 284.005 188.787 290.489 190.889 291.250 195 C 292.984 204.500 290.726 215.088 286 223.500 C 284.403 226.337 279.264 219.334 276.750 221.250 C 273.647 223.620 276.102 229.199 274.250 232.500 C 272.010 236.077 269.052 240.454 265 241 C 259.815 241.700 253.956 239.039 250.155 235.871 C 246.353 232.703 244 228.328 244 223.500 C 244 218.672 246.987 214.465 250.155 211.129 C 252.923 208.218 257.621 207.765 261 205.500 C 264.624 203.070 267.553 199.892 270.750 197 C 273.798 194.480 275.811 189.687 279.750 189.250 Z " transform="matrix(0.487967312335968, 0.5150766968727112, -0.4410379230976105, 0.4586697816848755, 11.05, -138.45)"/>
    <path id="ID0.7289760946296155" fill="#FFFFFF" stroke="none" d="M 241 216 C 247.897 216 254.147 218.409 258.673 222.301 C 263.199 226.193 266 231.568 266 237.500 C 266 243.432 263.199 248.807 258.673 252.699 C 254.147 256.591 247.897 259 241 259 C 234.103 259 227.853 256.591 223.327 252.699 C 218.801 248.807 216 243.432 216 237.500 C 216 231.568 218.801 226.193 223.327 222.301 C 227.853 218.409 234.103 216 241 216 Z " transform="matrix(0.5298967361450195, -0.3461180627346039, 0.38966140151023865, 0.5965602993965149, -159.35, 22.85)"/>
    <path id="ID0.19720295071601868" fill="#F0E0CE" stroke="none" d="M 254 180.150 C 254 180.150 254 180.164 254 180.187 C 254 180.209 254 180.241 254 180.275 C 254 180.309 254 180.341 254 180.363 C 254 180.386 254 180.400 254 180.400 C 254 180.400 254 180.386 254 180.363 C 254 180.341 254 180.309 254 180.275 C 254 180.241 254 180.209 254 180.187 C 254 180.164 254 180.150 254 180.150 Z " transform="matrix(0.9573807120323181, -0.6253421306610107, 0.7040133476257324, 1.0778239965438843, -303.9, 2.9)"/>
    <path id="ID0.06812670733779669" fill="#FFFFFF" stroke="none" stroke-linecap="round" d="M 249.850 180 C 254.481 179.990 257.608 186.335 260.556 190.194 C 262.375 192.572 264 195.258 264 198.500 C 264 201.742 262.472 204.506 260.556 206.806 C 256.292 211.926 252.613 218.914 246.200 220.500 C 235.524 223.141 214.412 223.992 212.950 218.500 C 211.563 212.993 232.220 206.135 240.500 198.500 C 242.701 196.470 242.568 192.852 243.944 190.194 C 245.736 186.725 246.175 179.990 249.850 180 Z " transform="matrix(0.9573807120323181, -0.6253421306610107, 0.7040133476257324, 1.0778239965438843, -303.9, 2.9)"/>
  </g>
  <path id="ID0.1416289354674518" fill="#FFEFDB" stroke="#000000" stroke-width="1" d="M 245.625 143 C 250.350 143 254.631 144.919 257.731 148.019 C 260.831 151.119 262.119 155.808 262.750 160.125 C 263.172 163.023 262.732 166.694 260.600 168.750 C 257.032 172.199 252.207 175.354 247.250 175.500 C 241.604 175.482 235.892 172.604 231.550 169.100 C 229.095 167.117 228.248 163.295 228.500 160.125 C 228.846 155.776 230.419 151.119 233.519 148.019 C 236.619 144.919 240.900 143 245.625 143 Z " transform="matrix(1.003786563873291, 0, 0, 1.3953806161880493, -179.7, -173.3)"/>
  <g id="ID0.4278178159147501" transform="matrix(1, 0, 0, 1, 0, -7)">
    <path id="ID0.7778503219597042" fill="#FFFFFF" stroke="none" d="M 335 225 C 335 225 335 225.056 335 225.147 C 335 225.237 335 225.362 335 225.500 C 335 225.638 335 225.763 335 225.853 C 335 225.944 335 226 335 226 C 335 226 335 225.944 335 225.853 C 335 225.763 335 225.638 335 225.500 C 335 225.362 335 225.237 335 225.147 C 335 225.056 335 225 335 225 Z " transform="matrix(0.5796975493431091, 0, 0, 0.5796975493431091, -130.75, -122.85)"/>
    <path id="ID0.10167139954864979" fill="#FFFFFF" stroke="#000000" stroke-width="1" d="M 294 203.250 C 295.448 203.250 296.761 203.838 297.711 204.789 C 298.662 205.739 299.250 207.052 299.250 208.500 C 299.250 209.948 298.662 211.261 297.711 212.211 C 296.761 213.162 295.448 213.750 294 213.750 C 292.552 213.750 291.239 213.162 290.289 212.211 C 289.338 211.261 288.750 209.948 288.750 208.500 C 288.750 207.052 289.338 205.739 290.289 204.789 C 291.239 203.838 292.552 203.250 294 203.250 Z " transform="matrix(1.047357439994812, 0, 0, 1.047357439994812, -249.1, -184.05)"/>
    <path id="ID0.10167139954864979" fill="#FFFFFF" stroke="#000000" stroke-width="1" d="M 294 203.250 C 295.448 203.250 296.761 203.838 297.711 204.789 C 298.662 205.739 299.250 207.052 299.250 208.500 C 299.250 209.948 298.662 211.261 297.711 212.211 C 296.761 213.162 295.448 213.750 294 213.750 C 292.552 213.750 291.239 213.162 290.289 212.211 C 289.338 211.261 288.750 209.948 288.750 208.500 C 288.750 207.052 289.338 205.739 290.289 204.789 C 291.239 203.838 292.552 203.250 294 203.250 Z " transform="matrix(1.047357439994812, 0, 0, 1.047357439994812, -244.4, -189.3)"/>
    <path id="ID0.10167139954864979" fill="#FFFFFF" stroke="#000000" stroke-width="1" d="M 294 203.250 C 295.448 203.250 296.761 203.838 297.711 204.789 C 298.662 205.739 299.250 207.052 299.250 208.500 C 299.250 209.948 298.662 211.261 297.711 212.211 C 296.761 213.162 295.448 213.750 294 213.750 C 292.552 213.750 291.239 213.162 290.289 212.211 C 289.338 211.261 288.750 209.948 288.750 208.500 C 288.750 207.052 289.338 205.739 290.289 204.789 C 291.239 203.838 292.552 203.250 294 203.250 Z " transform="matrix(1.047357439994812, 0, 0, 1.047357439994812, -239.65, -183.55)"/>
    <path id="ID0.10167139954864979" fill="#FFFFFF" stroke="#000000" stroke-width="1" d="M 294 203.250 C 295.448 203.250 296.761 203.838 297.711 204.789 C 298.662 205.739 299.250 207.052 299.250 208.500 C 299.250 209.948 298.662 211.261 297.711 212.211 C 296.761 213.162 295.448 213.750 294 213.750 C 292.552 213.750 291.239 213.162 290.289 212.211 C 289.338 211.261 288.750 209.948 288.750 208.500 C 288.750 207.052 289.338 205.739 290.289 204.789 C 291.239 203.838 292.552 203.250 294 203.250 Z " transform="matrix(1.047357439994812, 0, 0, 1.047357439994812, -234.45, -188.05)"/>
    <path id="ID0.10167139954864979" fill="#FFFFFF" stroke="#000000" stroke-width="1" d="M 294 203.250 C 295.448 203.250 296.761 203.838 297.711 204.789 C 298.662 205.739 299.250 207.052 299.250 208.500 C 299.250 209.948 298.662 211.261 297.711 212.211 C 296.761 213.162 295.448 213.750 294 213.750 C 292.552 213.750 291.239 213.162 290.289 212.211 C 289.338 211.261 288.750 209.948 288.750 208.500 C 288.750 207.052 289.338 205.739 290.289 204.789 C 291.239 203.838 292.552 203.250 294 203.250 Z " transform="matrix(1.047357439994812, 0, 0, 1.047357439994812, -231.85, -182.45)"/>
    <path id="ID0.007547991815954447" fill="#FFFFFF" stroke="none" d="M 284 217.250 C 285.586 217.250 287.024 217.894 288.065 218.935 C 289.106 219.976 289.750 221.414 289.750 223 C 289.750 224.586 289.106 226.024 288.065 227.065 C 287.024 228.106 285.586 228.750 284 228.750 C 282.414 228.750 280.976 228.106 279.935 227.065 C 278.894 226.024 278.250 224.586 278.250 223 C 278.250 221.414 278.894 219.976 279.935 218.935 C 280.976 217.894 282.414 217.250 284 217.250 Z " transform="matrix(1.047357439994812, 0, 0, 1.047357439994812, -234.45, -201.65)"/>
    <path id="ID0.007547991815954447" fill="#FFFFFF" stroke="none" stroke-linecap="round" d="M 284 217.250 C 285.586 217.250 287.024 217.894 288.065 218.935 C 289.106 219.976 289.750 221.414 289.750 223 C 289.750 224.586 289.280 226.248 288.065 227.065 C 286.760 227.943 284.880 227.414 283.250 227.500 C 282.159 227.414 280.816 227.804 279.935 227.065 C 278.815 226.123 278.250 224.586 278.250 223 C 278.250 221.414 278.894 219.976 279.935 218.935 C 280.976 217.894 282.414 217.250 284 217.250 Z " transform="matrix(1.047357439994812, 0, 0, 1.047357439994812, -223.95, -199.55)"/>
  </g>
  <path id="ID0.961741644423455" fill="#FFEFDB" stroke="#000000" stroke-width="2" stroke-linecap="round" d="M 326.600 146.150 C 330.485 146.402 332.249 152.575 334.203 155.926 C 335.977 158.953 337.500 162.069 337.500 166 C 337.500 169.931 336.239 173.494 334.203 176.074 C 332.166 178.653 329.354 180.250 326.250 180.250 C 323.146 180.250 320.334 178.653 318.297 176.074 C 316.261 173.494 315 169.931 315 166 C 315 162.069 316.446 158.907 318.297 155.926 C 320.411 152.504 322.570 146.402 326.600 146.150 Z " transform="matrix(0.48383527994155884, -0.31930020451545715, 0.31930020451545715, 0.48383527994155884, -160.2, 57)"/>
  <path id="ID0.961741644423455" fill="#FFEFDB" stroke="#000000" stroke-width="2" stroke-linecap="round" d="M 326.600 146.150 C 330.485 146.402 332.249 152.575 334.203 155.926 C 335.977 158.953 337.500 162.069 337.500 166 C 337.500 169.931 336.239 173.494 334.203 176.074 C 332.166 178.653 329.354 180.250 326.250 180.250 C 323.146 180.250 320.334 178.653 318.297 176.074 C 316.261 173.494 315 169.931 315 166 C 315 162.069 316.446 158.907 318.297 155.926 C 320.411 152.504 322.570 146.402 326.600 146.150 Z " transform="matrix(-0.43857407569885254, -0.3790806233882904, -0.3790806233882904, 0.43857407569885254, 291.15, 83.25)"/>
  <path id="ID0.5529168518260121" fill="#000000" stroke="none" d="M 268.875 165.750 C 269.806 165.750 270.650 166.128 271.261 166.739 C 271.872 167.350 272.250 168.194 272.250 169.125 C 272.250 170.056 271.872 170.900 271.261 171.511 C 270.650 172.122 269.806 172.500 268.875 172.500 C 267.944 172.500 267.100 172.122 266.489 171.511 C 265.878 170.900 265.500 170.056 265.500 169.125 C 265.500 168.194 265.878 167.350 266.489 166.739 C 267.100 166.128 267.944 165.750 268.875 165.750 Z " transform="matrix(0.5678274035453796, 0, 0, 0.5678274035453796, -91.75, -50)"/>
  <path id="ID0.5529168518260121" fill="#000000" stroke="none" d="M 268.875 165.750 C 269.806 165.750 270.650 166.128 271.261 166.739 C 271.872 167.350 272.250 168.194 272.250 169.125 C 272.250 170.056 271.872 170.900 271.261 171.511 C 270.650 172.122 269.806 172.500 268.875 172.500 C 267.944 172.500 267.100 172.122 266.489 171.511 C 265.878 170.900 265.500 170.056 265.500 169.125 C 265.500 168.194 265.878 167.350 266.489 166.739 C 267.100 166.128 267.944 165.750 268.875 165.750 Z " transform="matrix(0.5678274035453796, 0, 0, 0.5678274035453796, -73.15, -49.9)"/>
  <g id="ID0.3909909022040665" transform="matrix(1, 0, 0, 1, 0, -7)">
    <path id="ID0.4682988212443888" fill="#FFEFDB" stroke="none" d="M 259.600 195.850 C 261.297 195.850 262.834 196.164 263.948 196.671 C 265.061 197.178 265.750 197.878 265.750 198.650 C 265.750 199.422 265.061 200.122 263.948 200.629 C 262.834 201.136 261.297 201.450 259.600 201.450 C 257.903 201.450 256.366 201.136 255.252 200.629 C 254.139 200.122 253.450 199.422 253.450 198.650 C 253.450 197.878 254.139 197.178 255.252 196.671 C 256.366 196.164 257.903 195.850 259.600 195.850 Z " transform="matrix(0.9905737638473511, 0, 0, 1.4944002628326416, -186.95, -229.7)"/>
    <path id="ID0.42978896340355277" fill="#000000" stroke="none" d="M 259.750 195.100 C 260.509 195.100 261.196 195.240 261.694 195.466 C 262.192 195.693 262.500 196.005 262.500 196.350 C 262.500 196.695 262.192 197.007 261.694 197.234 C 261.196 197.460 260.509 197.600 259.750 197.600 C 258.991 197.600 258.304 197.460 257.806 197.234 C 257.308 197.007 257 196.695 257 196.350 C 257 196.005 257.308 195.693 257.806 195.466 C 258.304 195.240 258.991 195.100 259.750 195.100 Z " transform="matrix(0.694248378276825, 0, 0, 1.047357439994812, -110.2, -141.35)"/>
    <path id="ID0.15993712237104774" fill="none" stroke="#000000" stroke-width="1" stroke-linecap="round" d="M 254.100 199.400 C 254.100 199.400 255.080 200.549 255.750 200.550 C 256.759 200.551 257.479 199.426 258.450 199.450 C 259.228 199.470 259.772 200.691 260.600 200.700 C 261.373 200.708 262.650 199.550 262.650 199.550 " transform="matrix(1.047357439994812, 0, 0, 1.047357439994812, -200.6, -141.85)"/>
  </g>
</svg>